<?xml version="1.0" encoding="utf-8"?>
<!-- Generator: Adobe Illustrator 23.0.3, SVG Export Plug-In . SVG Version: 6.00 Build 0)  -->
<svg version="1.1" id="Layer_1" xmlns="http://www.w3.org/2000/svg" xmlns:xlink="http://www.w3.org/1999/xlink" x="0px" y="0px"
	 viewBox="0 0 197.2 25" style="enable-background:new 0 0 197.2 25;" xml:space="preserve">
<style type="text/css">
	.st0{fill:#293DCA;}
	.st1{fill:none;stroke:#293DCA;stroke-width:4;stroke-linecap:round;stroke-miterlimit:10;}
</style>
<g>
	<g>
		<path class="st0" d="M80.5,6c5.7,0,10.6,3.2,10.6,7s-4.8,7-10.6,7c-3.6,0-7.5-4.1-9.7-7C73.1,9.9,77,6,80.5,6 M80.5,2
			c-8,0-14.6,11-14.6,11s6.5,11,14.6,11c8,0,14.6-4.9,14.6-11S88.6,2,80.5,2L80.5,2z"/>
	</g>
	<g>
		<line class="st1" x1="2.1" y1="13" x2="68.1" y2="13"/>
	</g>
	<g>
		<path class="st0" d="M116.7,6c3.6,0,7.5,4.1,9.7,7c-2.3,3.1-6.2,7-9.7,7c-5.7,0-10.6-3.2-10.6-7S110.9,6,116.7,6 M116.7,2
			c-8,0-14.6,4.9-14.6,11s6.5,11,14.6,11c8,0,14.6-11,14.6-11S124.7,2,116.7,2L116.7,2z"/>
	</g>
	<g>
		<line class="st1" x1="195.1" y1="13" x2="129.1" y2="13"/>
	</g>
</g>
</svg>
